# xmcd CD database file
#
# Track frame offsets:
#	150
#	16909
#	35923
#	52685
#	70216
#	83733
#	102149
#	124433
#
# Disc length: 1899 seconds
#
# Revision: 0
# Processed by: cddbd v1.5.2PL0 Copyright (c) Steve Scherf et al.
# Submitted via: CDex 1.51
#
DISCID=62076908
DTITLE=Faijee - Overcoming Gravity
DYEAR=2011
DGENRE=
TTITLE0=All you need
TTITLE1=Overcoming Gravity
TTITLE2=Keep on Moving
TTITLE3=Perfect Morning
TTITLE4=Endless Travel
TTITLE5=Mirrors
TTITLE6=Hard Loving
TTITLE7=Lilac Lullaby
EXTD=YEAR: 2011
EXTT0=
EXTT1=
EXTT2=
EXTT3=
EXTT4=
EXTT5=
EXTT6=
EXTT7=
PLAYORDER=
